<?xml version="1.0" encoding="UTF-8"?>
<svg xmlns="http://www.w3.org/2000/svg" viewBox="0 0 240 320" width="240" height="320">
  <defs>
    <radialGradient id="bg" cx="50%" cy="40%" r="65%">
      <stop offset="0%" stop-color="#0d1628"/>
      <stop offset="100%" stop-color="#06080f"/>
    </radialGradient>
    <radialGradient id="skin" cx="38%" cy="30%" r="72%">
      <stop offset="0%" stop-color="#d4a858"/>
      <stop offset="100%" stop-color="#9e7230"/>
    </radialGradient>
  </defs>

  <!-- Sfondo -->
  <rect width="240" height="320" fill="url(#bg)"/>
  <ellipse cx="120" cy="155" rx="95" ry="115" fill="rgba(100,180,150,0.045)"/>

  <!-- Toga -->
  <path d="M 22 320 Q 34 265 65 246 Q 88 233 108 229 L 132 229 Q 152 233 175 246 Q 206 265 218 320 Z" fill="#b89042"/>
  <line x1="90" y1="241" x2="86" y2="320" stroke="#8a6020" stroke-width="1.5" opacity="0.55"/>
  <line x1="118" y1="233" x2="115" y2="320" stroke="#8a6020" stroke-width="1.5" opacity="0.55"/>
  <line x1="148" y1="241" x2="152" y2="320" stroke="#8a6020" stroke-width="1.5" opacity="0.55"/>

  <!-- Collo -->
  <path d="M 100 215 L 98 233 L 142 233 L 140 215 Q 130 222 120 223 Q 110 222 100 215 Z" fill="#c09838"/>

  <!-- Barba -->
  <path d="M 60 162 Q 44 184 47 212 Q 55 244 82 261 Q 100 273 120 275 Q 140 273 158 261 Q 185 244 193 212 Q 196 184 180 162 Q 162 154 120 156 Q 78 154 60 162 Z" fill="#d8c88a"/>
  <path d="M 78 173 Q 82 207 84 246" stroke="#a09040" stroke-width="1.2" fill="none" stroke-linecap="round" opacity="0.5"/>
  <path d="M 98 169 Q 100 208 100 253" stroke="#a09040" stroke-width="1.2" fill="none" stroke-linecap="round" opacity="0.5"/>
  <path d="M 120 168 Q 120 210 120 257" stroke="#a09040" stroke-width="1.2" fill="none" stroke-linecap="round" opacity="0.5"/>
  <path d="M 142 169 Q 140 208 140 253" stroke="#a09040" stroke-width="1.2" fill="none" stroke-linecap="round" opacity="0.5"/>
  <path d="M 162 173 Q 158 207 156 246" stroke="#a09040" stroke-width="1.2" fill="none" stroke-linecap="round" opacity="0.5"/>
  <path d="M 64 240 Q 73 252 82 247 Q 92 242 100 252 Q 110 261 120 257 Q 130 261 140 252 Q 148 242 158 247 Q 167 252 176 240" fill="none" stroke="rgba(200,180,100,0.3)" stroke-width="1.5"/>

  <!-- Viso -->
  <ellipse cx="120" cy="128" rx="70" ry="80" fill="url(#skin)"/>
  <ellipse cx="100" cy="104" rx="32" ry="25" fill="rgba(215,175,90,0.11)" transform="rotate(-15,100,104)"/>

  <!-- Capelli -->
  <path d="M 50 108 Q 54 60 80 44 Q 98 33 120 31 Q 142 33 160 44 Q 186 60 190 108 Q 185 74 162 62 Q 144 52 120 50 Q 96 52 78 62 Q 55 74 50 108 Z" fill="#6a3c10"/>
  <path d="M 66 80 Q 78 60 100 53" stroke="#4a2808" stroke-width="1.8" fill="none" stroke-linecap="round" opacity="0.6"/>
  <path d="M 174 80 Q 162 60 140 53" stroke="#4a2808" stroke-width="1.8" fill="none" stroke-linecap="round" opacity="0.6"/>

  <!-- Rughe fronte -->
  <path d="M 90 90 Q 104 87 118 90" stroke="#8a6228" stroke-width="1.1" fill="none" stroke-linecap="round" opacity="0.42"/>
  <path d="M 92 83 Q 104 80 116 83" stroke="#8a6228" stroke-width="0.9" fill="none" stroke-linecap="round" opacity="0.3"/>

  <!-- Sopracciglia -->
  <path d="M 74 107 Q 90 100 106 105" stroke="#4a2808" stroke-width="4" fill="none" stroke-linecap="round"/>
  <path d="M 134 105 Q 150 100 166 107" stroke="#4a2808" stroke-width="4" fill="none" stroke-linecap="round"/>

  <!-- Occhio sinistro -->
  <ellipse cx="91" cy="118" rx="14" ry="8" fill="#c8a050"/>
  <ellipse cx="91" cy="118" rx="7" ry="7" fill="#2a1505"/>
  <ellipse cx="91" cy="118" rx="3.5" ry="3.5" fill="#150a02"/>
  <circle cx="89" cy="116" r="1.8" fill="rgba(210,175,90,0.55)"/>
  <path d="M 77 118 Q 91 110 105 118" stroke="#5a3810" stroke-width="1.8" fill="none" stroke-linecap="round"/>
  <path d="M 78 118 Q 91 125 104 118" stroke="#5a3810" stroke-width="1.2" fill="none" stroke-linecap="round" opacity="0.55"/>

  <!-- Occhio destro -->
  <ellipse cx="149" cy="118" rx="14" ry="8" fill="#c8a050"/>
  <ellipse cx="149" cy="118" rx="7" ry="7" fill="#2a1505"/>
  <ellipse cx="149" cy="118" rx="3.5" ry="3.5" fill="#150a02"/>
  <circle cx="147" cy="116" r="1.8" fill="rgba(210,175,90,0.55)"/>
  <path d="M 135 118 Q 149 110 163 118" stroke="#5a3810" stroke-width="1.8" fill="none" stroke-linecap="round"/>
  <path d="M 136 118 Q 149 125 162 118" stroke="#5a3810" stroke-width="1.2" fill="none" stroke-linecap="round" opacity="0.55"/>

  <!-- Naso -->
  <path d="M 118 130 L 112 154 Q 114 160 120 162 Q 126 160 128 154 L 122 130" fill="rgba(140,88,18,0.18)"/>
  <ellipse cx="112" cy="158" rx="6" ry="4" fill="rgba(90,50,10,0.28)"/>
  <ellipse cx="128" cy="158" rx="6" ry="4" fill="rgba(90,50,10,0.28)"/>

  <!-- Baffi -->
  <path d="M 94 167 Q 107 173 120 170 Q 133 173 146 167" fill="#b09040" stroke="#7a5a18" stroke-width="0.8"/>

  <!-- Orecchie -->
  <ellipse cx="50" cy="130" rx="10" ry="15" fill="#c09030"/>
  <path d="M 54 120 Q 46 130 54 142" fill="none" stroke="#8a6020" stroke-width="1.5" stroke-linecap="round" opacity="0.5"/>
  <ellipse cx="190" cy="130" rx="10" ry="15" fill="#c09030"/>
  <path d="M 186 120 Q 194 130 186 142" fill="none" stroke="#8a6020" stroke-width="1.5" stroke-linecap="round" opacity="0.5"/>

  <!-- Corona d'alloro -->
  <g opacity="0.78" fill="#2d7035">
    <ellipse cx="64"  cy="76"  rx="10" ry="6" transform="rotate(-35,64,76)"/>
    <ellipse cx="57"  cy="88"  rx="10" ry="6" transform="rotate(-50,57,88)"/>
    <ellipse cx="55"  cy="102" rx="10" ry="6" transform="rotate(-60,55,102)"/>
    <ellipse cx="176" cy="76"  rx="10" ry="6" transform="rotate(35,176,76)"/>
    <ellipse cx="183" cy="88"  rx="10" ry="6" transform="rotate(50,183,88)"/>
    <ellipse cx="185" cy="102" rx="10" ry="6" transform="rotate(60,185,102)"/>
    <ellipse cx="88"  cy="56"  rx="10" ry="6" transform="rotate(-15,88,56)"/>
    <ellipse cx="104" cy="48"  rx="10" ry="6" transform="rotate(-5,104,48)"/>
    <ellipse cx="120" cy="46"  rx="10" ry="6"/>
    <ellipse cx="136" cy="48"  rx="10" ry="6" transform="rotate(5,136,48)"/>
    <ellipse cx="152" cy="56"  rx="10" ry="6" transform="rotate(15,152,56)"/>
  </g>
  <path d="M 55 106 Q 62 74 90 54 Q 104 45 120 43 Q 136 45 150 54 Q 178 74 185 106" fill="none" stroke="#3a6028" stroke-width="2.5" opacity="0.48"/>

  <!-- Vignetta bassa -->
  <rect x="0" y="278" width="240" height="42" fill="url(#bg)" opacity="0.72"/>
</svg>
